<?xml version="1.0" encoding="UTF-8" standalone="no"?>
<!DOCTYPE svg PUBLIC "-//W3C//DTD SVG 1.1//EN" "http://www.w3.org/Graphics/SVG/1.1/DTD/svg11.dtd">
<svg width="100%" height="100%" viewBox="0 0 14 23" version="1.1" xmlns="http://www.w3.org/2000/svg" xmlns:xlink="http://www.w3.org/1999/xlink" xml:space="preserve" xmlns:serif="http://www.serif.com/" style="fill-rule:evenodd;clip-rule:evenodd;">
    <g transform="matrix(1,0,0,1,-0.0395417,-0.0395371)">
        <g transform="matrix(1.18559,0,0,1.18559,-772.618,-265.427)">
            <g id="path4337-3" transform="matrix(0.843465,0,0,0.843465,651.677,223.878)">
                <path d="M2.133,2.501C1.098,3.538 0.45,5.05 0.475,6.471C0.528,9.442 1.953,10.567 4.232,14.655C5.053,16.454 5.91,18.358 6.725,21.511C6.838,21.976 6.949,22.408 7,22.445C7.051,22.483 7.162,22.049 7.275,21.584C8.09,18.431 8.947,16.529 9.768,14.73C12.047,10.641 13.472,9.517 13.525,6.546C13.55,5.125 12.9,3.612 11.866,2.574C10.684,1.389 8.901,0.512 7,0.475C5.099,0.439 3.315,1.316 2.133,2.501ZM7,3.092C9.141,3.092 10.879,4.831 10.879,6.972C10.879,9.112 9.141,10.851 7,10.851C4.859,10.851 3.121,9.112 3.121,6.972C3.121,4.831 4.859,3.092 7,3.092Z" style="fill:rgb(255,70,70);fill-rule:nonzero;stroke:rgb(89,0,0);stroke-width:0.21px;"/>
            </g>
        </g>
    </g>
</svg>
