<?xml version="1.0" encoding="UTF-8" standalone="no"?>
<!DOCTYPE svg PUBLIC "-//W3C//DTD SVG 1.1//EN" "http://www.w3.org/Graphics/SVG/1.1/DTD/svg11.dtd">
<svg width="100%" height="100%" viewBox="0 0 114 170" version="1.1" xmlns="http://www.w3.org/2000/svg" xmlns:xlink="http://www.w3.org/1999/xlink" xml:space="preserve" xmlns:serif="http://www.serif.com/" style="fill-rule:evenodd;clip-rule:evenodd;stroke-linejoin:round;stroke-miterlimit:2;">
    <g transform="matrix(1,0,0,1,-250,-509.125)">
        <path id="path3764" d="M306.5,509.125C275.351,509.125 250,534.476 250,565.625C250,565.996 250.025,566.182 250.031,566.344C250.033,566.393 250.031,566.532 250.031,566.563C250.024,566.631 250,566.607 250,566.938C250,586.575 263.441,612.151 276.469,633.875C289.497,655.599 302.5,672.938 302.5,672.938L306.563,678.344L310.563,672.906C310.563,672.906 320.776,658.923 332.156,640.5C343.29,622.476 355.54,600.35 360.625,581.813L360.813,581.813L361.5,578.594L361.562,578.406L361.562,578.344C361.563,578.342 361.6,578.166 361.656,577.906C361.665,577.867 361.678,577.891 361.687,577.844L361.656,577.844C361.85,576.97 362.04,576.102 362.187,575.25C362.189,575.24 362.185,575.229 362.187,575.219C362.698,572.385 363.031,569.628 363.031,566.938C363.031,566.696 363.007,566.734 363,566.625C363.001,566.583 362.998,566.461 363,566.406C362.999,566.4 362.999,566.266 363,566.281C363.007,566.094 363.031,565.928 363.031,565.625C363.031,534.476 337.648,509.125 306.5,509.125L306.5,509.125ZM306.5,519.125C332.244,519.125 353.031,539.88 353.031,565.625C353.031,565.738 353.009,565.995 353,566.375L353,566.688C353.015,567.064 353.031,567.146 353.031,566.938C353.031,568.835 352.782,571.046 352.344,573.469L352.344,573.531C352.213,574.288 352.064,575.012 351.906,575.719L351.906,575.781C351.902,575.8 351.831,576.047 351.781,576.281C351.763,576.367 351.771,576.356 351.75,576.469C351.63,576.982 351.481,577.479 351.344,577.969L351.344,578.062C347.058,594.603 334.816,617.184 323.656,635.25C315.984,647.67 310.177,656.058 306.469,661.312C302.261,655.491 294.567,644.567 285.063,628.719C272.336,607.498 260,581.564 260,566.938C260,567.151 260.02,567.065 260.031,566.625L260.031,566.406C260.025,565.97 260,565.709 260,565.625C260,539.88 280.755,519.125 306.5,519.125Z" style="fill:rgb(89,0,30);fill-rule:nonzero;"/>
    </g>
    <g transform="matrix(1,0,0,1,-250,-509.125)">
        <path id="path13-0" d="M356.792,576.804C356.972,575.998 357.128,575.184 357.269,574.365C357.745,571.731 358.022,569.23 358.022,566.931C358.022,566.782 358.006,566.639 358,566.492C358.007,566.205 358.022,565.92 358.022,565.633C358.022,537.186 334.96,514.125 306.514,514.125C278.067,514.125 255.006,537.186 255.006,565.633C255.006,565.917 255.023,566.196 255.027,566.479C255.023,566.631 255.006,566.778 255.006,566.932C255.006,601.196 306.514,669.952 306.514,669.952C306.514,669.952 347.018,614.635 356.171,579.314C356.348,578.68 356.509,578.039 356.657,577.394C356.697,577.184 356.747,576.994 356.787,576.804L356.792,576.804Z" style="fill:rgb(255,65,65);fill-rule:nonzero;"/>
    </g>
</svg>
